<svg xmlns="http://www.w3.org/2000/svg" version="1.0" viewBox="57.08 112.02 234.1 144.62"><defs><clipPath id="a"><path d="M 98 154.65625 L 201 154.65625 L 201 256 L 98 256 Z M 98 154.65625"/></clipPath><clipPath id="b"><path d="M 197 196 L 201.695312 196 L 201.695312 201 L 197 201 Z M 197 196"/></clipPath><clipPath id="c"><path d="M 137 252 L 143 252 L 143 256.65625 L 137 256.65625 Z M 137 252"/></clipPath><clipPath id="d"><path d="M 57.148438 112 L 107 112 L 107 162 L 57.148438 162 Z M 57.148438 112"/></clipPath><clipPath id="e"><path d="M 101 156 L 130.648438 156 L 130.648438 185.464844 L 101 185.464844 Z M 101 156"/></clipPath><clipPath id="f"><path d="M 210.097656 241.28125 L 290.339844 241.28125 L 290.339844 253.28125 L 210.097656 253.28125 Z M 210.097656 241.28125"/></clipPath></defs><g clip-path="url(#a)"><path fill="#50BDD0" d="M 197.855469 216.378906 C 197.570312 214.046875 196.640625 211.859375 195.0625 209.761719 C 196.714844 207 197.972656 204.4375 198.789062 202.183594 C 199.011719 205.671875 199.054688 210.273438 198.054688 215.460938 C 197.988281 215.773438 197.921875 216.078125 197.855469 216.378906 Z M 146.183594 254.164062 C 148.523438 253.371094 151.175781 252.105469 154.101562 250.386719 C 155.691406 251.472656 157.753906 252.785156 160.613281 253.203125 C 157.890625 253.792969 154.65625 254.25 150.882812 254.308594 C 150.691406 254.308594 150.496094 254.308594 150.304688 254.308594 C 148.988281 254.308594 147.632812 254.261719 146.183594 254.164062 Z M 119.039062 244.0625 L 119.042969 244.0625 C 120.277344 244.0625 121.707031 243.839844 123.292969 243.40625 C 124.351562 243.117188 125.488281 242.722656 126.675781 242.246094 C 129.167969 246.058594 132.011719 249.867188 136.476562 252.535156 C 132.394531 251.503906 127.480469 249.785156 122.152344 246.425781 C 121.074219 245.734375 120.011719 245.007812 118.808594 244.128906 C 118.773438 244.101562 118.738281 244.074219 118.703125 244.046875 C 118.816406 244.050781 118.925781 244.0625 119.039062 244.0625 Z M 102.175781 221.8125 C 102.890625 222.171875 103.820312 222.402344 105.019531 222.402344 C 105.292969 222.402344 105.578125 222.386719 105.871094 222.363281 C 106.515625 225.910156 107.515625 230.90625 110.316406 236.003906 C 109.097656 234.5625 107.863281 232.925781 106.664062 231.042969 C 105.234375 228.757812 104.011719 226.367188 102.925781 223.738281 C 102.671875 223.097656 102.421875 222.457031 102.175781 221.8125 Z M 108.320312 220.1875 C 107.863281 220.3125 107.417969 220.417969 106.996094 220.5 C 106.570312 216.460938 105.964844 209.5625 107.441406 198.761719 C 108.566406 203.148438 110.878906 209.167969 117.472656 216.074219 C 114.007812 218.085938 110.933594 219.46875 108.320312 220.1875 Z M 119.316406 215.023438 C 118.546875 210.035156 117.753906 204.523438 116.902344 192.265625 C 119.324219 195.425781 123.425781 199.941406 132.511719 205.269531 C 127.96875 209.113281 123.4375 212.460938 119.316406 215.023438 Z M 134.296875 203.734375 C 132.25 197 129.949219 189.550781 127.105469 183.183594 C 130.921875 185 135.675781 187.046875 147.574219 190.65625 C 143.472656 195.207031 138.910156 199.699219 134.296875 203.734375 Z M 154.570312 182.269531 C 152.898438 184.449219 151.082031 186.664062 149.164062 188.867188 C 146.726562 184.566406 142.59375 177.5625 136.605469 172.6875 C 143.371094 173.125 151.425781 173.707031 159.664062 175.015625 C 158.203125 177.324219 156.492188 179.761719 154.570312 182.269531 Z M 160.765625 173.21875 C 157.292969 170.023438 151.921875 165.324219 143.726562 163.160156 C 146.890625 162.785156 150.839844 162.425781 155.292969 162.425781 C 158.722656 162.425781 162.058594 162.648438 165.214844 163.082031 C 164.601562 165.839844 163.078125 169.316406 160.765625 173.21875 Z M 167.125 161.996094 C 167.332031 160.21875 167.101562 158.925781 166.65625 157.988281 C 170.703125 159.542969 176.253906 162.085938 181.984375 167.203125 C 178.589844 165.171875 173.894531 163.164062 167.125 161.996094 Z M 194.980469 212.328125 C 196.117188 214.265625 197.128906 216.886719 196.519531 220.523438 C 196.324219 221.542969 196.054688 222.445312 195.792969 223.285156 C 195.742188 223.433594 195.6875 223.582031 195.628906 223.734375 C 195.082031 224.976562 194.316406 226.363281 193.367188 227.847656 C 194.296875 224.417969 195.210938 219.378906 194.980469 212.328125 Z M 183.746094 226.027344 C 186.953125 227.425781 190.480469 229.136719 190.824219 231.445312 L 190.816406 231.453125 C 189.019531 233.800781 186.972656 236.148438 184.722656 238.441406 C 184.640625 234.597656 184.3125 230.433594 183.746094 226.027344 Z M 175.726562 246.375 C 174.359375 246.148438 172.527344 245.5625 169.769531 239.824219 C 172.640625 240.191406 177.386719 240.738281 181.730469 240.738281 C 181.953125 240.738281 182.171875 240.738281 182.390625 240.734375 C 180.195312 242.808594 177.917969 244.738281 175.726562 246.375 Z M 168.113281 251.003906 C 166.609375 251.472656 164.738281 252.050781 162.621094 252.050781 C 160.503906 252.050781 158.492188 251.476562 156.523438 250.296875 C 157.367188 250.324219 158.308594 250.34375 159.3125 250.34375 C 164.078125 250.34375 168.265625 249.882812 171.988281 248.941406 C 170.597656 249.804688 169.289062 250.5 168.113281 251.003906 Z M 124.910156 239.246094 C 120.078125 236.15625 112.871094 230.980469 107.582031 222.113281 C 107.984375 222.03125 108.394531 221.933594 108.820312 221.820312 C 111.527344 221.074219 114.691406 219.65625 118.242188 217.597656 C 119.308594 223.355469 120.925781 231.464844 124.910156 239.246094 Z M 186.992188 182.554688 C 188.253906 179.511719 188.886719 176.925781 188.886719 174.832031 C 191.667969 178.683594 195.242188 184.3125 197.351562 192.777344 C 195.609375 189.695312 192.660156 186.144531 186.992188 182.554688 Z M 184.109375 224.480469 C 185.941406 222.382812 187.675781 220.269531 189.273438 218.191406 C 190.867188 216.109375 192.3125 214.074219 193.582031 212.125 C 193.714844 216.386719 193.664062 223.117188 191.570312 229.574219 C 190.832031 228.238281 189.070312 226.617188 184.109375 224.480469 Z M 182.660156 239.363281 C 178.988281 239.363281 174.804688 239.042969 170.21875 238.414062 C 174.414062 234.726562 178.554688 230.648438 182.308594 226.507812 C 182.699219 229.566406 183.28125 234.515625 183.386719 239.359375 C 183.171875 239.363281 182.933594 239.363281 182.660156 239.363281 Z M 116.402344 242.164062 C 113.675781 239.046875 109.738281 234.46875 107.699219 224.78125 C 110.601562 229.125 115.539062 235.335938 125.105469 241.082031 C 124.226562 241.410156 123.382812 241.6875 122.585938 241.90625 C 119.972656 242.625 117.855469 242.710938 116.402344 242.164062 Z M 141.320312 230.265625 C 136.007812 227.804688 127.476562 223.59375 120.066406 216.5625 C 124.277344 213.957031 128.90625 210.542969 133.542969 206.625 C 136.792969 217.566406 138.640625 223.621094 141.320312 230.265625 Z M 158.898438 215.390625 C 151.820312 212.707031 143.308594 209.410156 135.34375 205.070312 C 140.054688 200.957031 144.710938 196.371094 148.894531 191.722656 C 151.238281 196.375 153.78125 201.617188 158.898438 215.390625 Z M 174.707031 197.449219 C 169.085938 195.390625 167.847656 195.015625 150.511719 189.902344 C 152.441406 187.6875 154.269531 185.460938 155.949219 183.265625 C 157.929688 180.683594 159.6875 178.171875 161.191406 175.792969 C 164.371094 179.328125 169.71875 185.578125 174.707031 197.449219 Z M 198.40625 198.414062 C 197.9375 200.886719 196.636719 204.027344 194.621094 207.566406 C 194.03125 202.410156 192.777344 194.324219 188.140625 185.117188 C 191.84375 187.738281 196.34375 191.621094 198.40625 198.414062 Z M 168.222656 240.144531 C 169.472656 242.6875 171.183594 245.886719 173.570312 247.15625 C 170.683594 248.015625 166.210938 249.046875 159.597656 249.046875 C 158.5625 249.046875 157.496094 249.015625 156.414062 248.964844 C 160.144531 246.582031 164.179688 243.566406 168.222656 240.144531 Z M 141.179688 231.917969 C 136.078125 235.601562 131.261719 238.476562 127.171875 240.28125 C 125.011719 236.21875 122.1875 230.613281 119.898438 218.421875 C 123.59375 221.746094 129.882812 226.910156 141.179688 231.917969 Z M 184.023438 180.816406 C 179.957031 178.699219 173.835938 175.992188 162.316406 173.953125 C 164.617188 170.054688 166.15625 166.550781 166.824219 163.710938 C 171.140625 166.421875 177.75 170.875 184.023438 180.816406 Z M 187.113281 172.574219 C 187.667969 174.535156 187.214844 177.445312 185.804688 181.050781 C 182.871094 176.414062 178.246094 169.578125 169.824219 163.957031 C 174.769531 165.082031 181.324219 167.1875 187.113281 172.574219 Z M 128.578125 241.480469 C 132.710938 239.589844 137.507812 236.6875 142.570312 233.011719 C 144.730469 237.914062 147.613281 244.195312 152.011719 248.585938 C 146.679688 247.933594 138.214844 246.542969 128.578125 241.480469 Z M 143.136719 230.476562 C 140.378906 223.589844 139.308594 220.390625 135.214844 206.769531 C 139.738281 209.179688 145.730469 212.210938 158.742188 217.0625 C 153.648438 222 148.28125 226.617188 143.136719 230.476562 Z M 160.570312 215.261719 C 157.75 207.726562 154.570312 199.332031 150.601562 191.5625 C 165.6875 196.027344 169.109375 197.054688 174.78125 199.195312 C 170.621094 204.601562 165.84375 210.003906 160.570312 215.261719 Z M 177.390625 198.570312 C 181.242188 193.390625 184.1875 188.648438 186.160156 184.4375 C 188.476562 188.957031 192.058594 196.566406 193.285156 207.808594 C 190.910156 205.464844 187.101562 202.449219 177.390625 198.570312 Z M 177.652344 200.425781 C 182.566406 202.453125 189.207031 205.394531 193.242188 209.875 C 191.800781 212.179688 190.097656 214.621094 188.167969 217.136719 C 186.664062 219.097656 185.039062 221.089844 183.324219 223.070312 C 182.566406 218.25 181.089844 209.777344 177.652344 200.425781 Z M 168.808594 237.632812 C 168.335938 236.386719 167.035156 232.792969 161.761719 218.25 C 164.113281 219.074219 166.492188 219.867188 168.804688 220.636719 C 173 222.035156 177.328125 223.480469 181.523438 225.109375 C 177.59375 229.46875 173.226562 233.773438 168.808594 237.632812 Z M 154.210938 248.582031 C 151.898438 246.40625 148.800781 243.238281 144.441406 233.347656 C 149.261719 235.203125 156.214844 237.699219 166.753906 239.390625 C 162.425781 243.027344 158.117188 246.183594 154.210938 248.582031 Z M 176.285156 197.203125 C 174.023438 191.96875 170.097656 183.332031 163.125 175.628906 C 169.109375 176.78125 177.3125 178.597656 184.984375 182.992188 C 183.101562 187.140625 180.113281 192.027344 176.285156 197.203125 Z M 170.21875 219.476562 C 167.425781 218.53125 164.546875 217.546875 161.714844 216.53125 C 167 211.265625 171.789062 205.859375 175.964844 200.445312 C 177.726562 205.296875 180.15625 212.394531 181.898438 223.601562 C 178.023438 222.132812 174.0625 220.78125 170.21875 219.476562 Z M 167.226562 237.960938 C 162.285156 237.121094 154.042969 235.582031 144.375 231.679688 C 149.539062 227.789062 154.917969 223.160156 160.023438 218.199219 C 165.574219 233.652344 166.519531 236.28125 167.226562 237.960938 Z M 142.386719 253.714844 C 139.214844 252.59375 134.152344 250.71875 129.089844 243.292969 C 133.761719 245.578125 141.230469 248.792969 151.839844 249.972656 C 148.933594 251.59375 146.328125 252.726562 144.085938 253.339844 C 143.488281 253.503906 142.917969 253.628906 142.386719 253.714844 Z M 159.863281 156.222656 C 160.65625 156.332031 161.464844 156.46875 162.402344 156.652344 C 162.847656 156.746094 163.296875 156.847656 163.734375 156.957031 C 165.105469 157.65625 165.691406 159.148438 165.484375 161.410156 C 161.699219 159.554688 155.863281 156.902344 147.832031 156.480469 C 149.996094 156.144531 152.390625 155.902344 154.917969 155.902344 C 156.597656 155.902344 158.261719 156.011719 159.863281 156.222656 Z M 100.574219 202.839844 C 100.71875 207.628906 101.691406 213.789062 105.25 220.71875 C 103.058594 220.816406 101.664062 220.109375 101.082031 218.621094 C 100.394531 215.429688 99.351562 210.53125 100.574219 202.839844 Z M 200.574219 205.546875 L 200.550781 204.921875 C 200.542969 204.144531 200.519531 203.496094 200.464844 202.863281 C 200.375 201.347656 200.214844 200.546875 199.753906 198.554688 C 199.914062 197.476562 199.925781 196.507812 199.777344 195.652344 L 199.730469 195.4375 C 199.714844 195.332031 199.699219 195.226562 199.679688 195.121094 C 199.53125 194.359375 199.316406 193.460938 199.125 192.6875 C 198.960938 191.960938 198.8125 191.367188 198.679688 190.871094 C 198.679688 190.867188 198.675781 190.863281 198.675781 190.859375 C 198.179688 189.117188 197.949219 188.347656 197.359375 186.859375 C 196.84375 185.375 196.441406 184.40625 195.761719 183.023438 C 195.148438 181.6875 194.238281 180.097656 193.4375 178.691406 C 193.269531 178.398438 193.105469 178.113281 192.9375 177.820312 L 192.601562 177.285156 C 192.59375 177.269531 192.578125 177.25 192.570312 177.238281 L 192.539062 177.195312 C 192.054688 176.445312 191.679688 175.902344 191.105469 175.203125 C 190.101562 173.839844 189.683594 173.378906 188.4375 172.132812 C 188.214844 171.558594 187.914062 171.046875 187.519531 170.609375 L 187.3125 170.386719 C 187.253906 170.320312 187.195312 170.253906 187.128906 170.179688 L 185.691406 168.679688 C 185.660156 168.636719 185.621094 168.601562 185.582031 168.570312 C 184.289062 167.285156 183.695312 166.710938 182.414062 165.679688 C 181.195312 164.597656 180.585938 164.152344 179.007812 163.027344 C 179.007812 163.027344 179.003906 163.023438 179.003906 163.023438 C 177.503906 161.96875 176.835938 161.511719 175.398438 160.707031 C 174.03125 159.855469 173.164062 159.390625 171.703125 158.714844 C 170.660156 158.195312 169.3125 157.65625 168.125 157.179688 C 167.742188 157.027344 167.375 156.878906 167.035156 156.742188 C 167.019531 156.734375 167.003906 156.730469 166.992188 156.726562 L 166.808594 156.667969 C 166.679688 156.617188 166.554688 156.570312 166.429688 156.523438 C 166.421875 156.519531 166.414062 156.519531 166.402344 156.515625 L 164.410156 155.890625 L 164.089844 155.804688 C 164.070312 155.800781 164.050781 155.796875 164.03125 155.792969 L 163.964844 155.78125 L 163.800781 155.730469 C 163.78125 155.726562 163.765625 155.722656 163.75 155.71875 C 163.398438 155.644531 163.03125 155.570312 162.636719 155.496094 C 161.78125 155.316406 160.902344 155.167969 160.023438 155.050781 C 158.199219 154.796875 156.410156 154.671875 154.558594 154.671875 C 150.226562 154.671875 145.644531 155.339844 140.550781 156.714844 C 140.441406 156.746094 140.339844 156.808594 140.265625 156.894531 C 140.0625 157.03125 139.964844 157.285156 140.027344 157.527344 C 140.101562 157.808594 140.367188 157.992188 140.65625 157.96875 L 140.777344 157.957031 C 142.183594 157.863281 143.78125 157.753906 145.625 157.753906 C 151.464844 157.753906 157.007812 158.960938 162.464844 161.425781 C 160.46875 161.242188 158.027344 161.085938 155.121094 161.085938 C 150.296875 161.085938 145.105469 161.515625 139.691406 162.363281 L 139.503906 162.394531 C 139.484375 162.398438 139.453125 162.40625 139.433594 162.410156 C 139.347656 162.433594 139.167969 162.484375 139.023438 162.636719 C 138.886719 162.777344 138.832031 162.980469 138.875 163.171875 C 138.917969 163.367188 139.058594 163.523438 139.242188 163.59375 L 139.367188 163.640625 C 139.40625 163.65625 139.445312 163.667969 139.488281 163.671875 L 139.617188 163.691406 C 143.800781 164.523438 150.652344 165.898438 158.789062 173.390625 C 153.605469 172.632812 147.832031 171.90625 134.445312 171.160156 L 134.269531 171.148438 C 134.230469 171.148438 134.167969 171.152344 134.125 171.160156 C 134.035156 171.171875 133.816406 171.207031 133.648438 171.382812 C 133.457031 171.582031 133.429688 171.890625 133.582031 172.121094 L 133.652344 172.226562 C 133.695312 172.285156 133.746094 172.339844 133.804688 172.378906 L 133.894531 172.441406 C 136.777344 174.6875 141.523438 178.394531 147.4375 188.984375 C 140.742188 186.960938 132.742188 184.457031 126.007812 181.0625 L 125.875 180.996094 C 125.808594 180.960938 125.738281 180.941406 125.664062 180.933594 L 125.539062 180.921875 C 125.367188 180.90625 125.191406 180.964844 125.066406 181.085938 C 125.066406 181.089844 125.042969 181.109375 125.042969 181.113281 C 124.925781 181.226562 124.863281 181.417969 124.871094 181.582031 C 124.871094 181.652344 124.878906 181.78125 124.945312 181.925781 L 124.992188 182.027344 C 127.386719 187.390625 128.96875 191.375 132.609375 203.496094 C 127.917969 200.664062 121.078125 196.21875 116.660156 189.527344 L 116.609375 189.449219 C 116.453125 189.203125 116.144531 189.117188 115.875 189.230469 C 115.675781 189.316406 115.546875 189.503906 115.523438 189.707031 C 115.417969 189.824219 115.363281 189.980469 115.375 190.140625 C 115.769531 196.496094 116.304688 205.046875 117.652344 214.019531 C 114.152344 210.117188 109.425781 204.105469 108.023438 195.117188 C 107.996094 194.9375 107.882812 194.78125 107.722656 194.691406 C 107.5625 194.601562 107.371094 194.59375 107.199219 194.667969 L 106.996094 194.753906 C 106.800781 194.832031 106.667969 195.003906 106.632812 195.210938 C 105.902344 199.957031 104.609375 208.339844 105.308594 217.574219 C 103.1875 212.769531 100.9375 205.800781 102.082031 196.179688 C 102.113281 195.917969 101.960938 195.664062 101.710938 195.5625 L 101.644531 195.53125 C 101.484375 195.457031 101.296875 195.457031 101.136719 195.53125 C 100.976562 195.609375 100.859375 195.753906 100.816406 195.921875 C 99.550781 200.917969 97.433594 209.28125 99.84375 218.628906 L 99.898438 218.820312 C 99.898438 218.828125 99.898438 218.839844 99.902344 218.851562 L 100.386719 220.472656 C 100.457031 220.671875 100.535156 220.878906 100.613281 221.089844 C 101.203125 222.824219 101.878906 224.519531 102.628906 226.132812 C 102.742188 226.398438 102.851562 226.65625 102.960938 226.902344 C 102.964844 226.90625 102.964844 226.910156 102.964844 226.917969 C 102.96875 226.917969 102.96875 226.917969 102.96875 226.917969 C 102.96875 226.921875 102.972656 226.925781 102.972656 226.929688 C 103.808594 228.640625 104.140625 229.304688 104.972656 230.644531 C 105.765625 232.058594 106.222656 232.722656 107.273438 234.214844 C 107.273438 234.214844 107.273438 234.21875 107.273438 234.21875 C 108.402344 235.792969 108.847656 236.402344 109.929688 237.621094 C 110.972656 238.917969 111.546875 239.507812 112.863281 240.832031 C 112.867188 240.835938 112.871094 240.839844 112.875 240.84375 L 114.398438 242.304688 C 114.460938 242.363281 114.527344 242.421875 114.597656 242.476562 L 114.828125 242.699219 C 115.15625 242.992188 115.53125 243.238281 115.945312 243.4375 C 116.832031 244.226562 118.457031 245.644531 119.765625 246.617188 C 119.773438 246.625 119.78125 246.632812 119.792969 246.636719 L 120.171875 246.890625 L 120.304688 246.992188 C 120.316406 247 120.328125 247.007812 120.339844 247.015625 L 121.898438 248.035156 C 121.902344 248.035156 121.90625 248.039062 121.910156 248.039062 L 121.914062 248.042969 C 123.457031 249 124.144531 249.417969 125.59375 250.125 C 126.976562 250.878906 127.65625 251.171875 129.410156 251.910156 C 129.410156 251.910156 129.410156 251.910156 129.414062 251.914062 C 131.101562 252.605469 131.847656 252.902344 133.371094 253.355469 C 134.84375 253.867188 135.664062 254.070312 137.375 254.480469 C 137.378906 254.480469 137.386719 254.480469 137.390625 254.484375 L 139.414062 254.914062 C 139.503906 254.929688 139.59375 254.949219 139.6875 254.960938 L 139.96875 255.019531 C 140.371094 255.089844 140.808594 255.125 141.265625 255.125 C 141.65625 255.125 142.074219 255.097656 142.507812 255.046875 C 145.761719 255.707031 146.128906 255.777344 148.65625 255.84375 C 148.664062 255.84375 148.675781 255.84375 148.683594 255.84375 L 148.964844 255.835938 L 149.140625 255.847656 C 149.152344 255.847656 149.164062 255.847656 149.171875 255.847656 C 149.175781 255.847656 149.179688 255.847656 149.179688 255.847656 C 149.945312 255.839844 150.898438 255.800781 152.183594 255.726562 C 152.957031 255.691406 153.632812 255.652344 154.195312 255.609375 C 154.199219 255.605469 154.203125 255.605469 154.207031 255.605469 C 154.214844 255.605469 154.21875 255.605469 154.222656 255.605469 C 156.226562 255.371094 157.335938 255.214844 158.457031 255.007812 C 159.816406 254.773438 160.984375 254.496094 162.929688 254.003906 C 162.9375 254 162.941406 254 162.945312 254 C 162.949219 253.996094 162.957031 253.996094 162.964844 253.992188 C 163.105469 253.949219 163.246094 253.90625 163.394531 253.863281 C 166.671875 252.859375 166.824219 252.808594 168.777344 252.019531 L 168.824219 252 C 168.832031 251.996094 168.835938 251.992188 168.839844 251.988281 L 168.910156 251.960938 L 169.132812 251.871094 C 169.144531 251.867188 169.152344 251.863281 169.164062 251.859375 C 169.175781 251.855469 169.191406 251.847656 169.203125 251.84375 C 169.214844 251.835938 169.222656 251.832031 169.234375 251.828125 L 169.789062 251.59375 C 169.855469 251.566406 169.914062 251.523438 169.964844 251.476562 C 171.828125 250.570312 173.941406 249.261719 176.164062 247.636719 C 177.542969 247.347656 177.691406 247.300781 178.675781 246.644531 L 178.769531 246.578125 C 178.785156 246.566406 178.796875 246.558594 178.808594 246.550781 L 179.019531 246.398438 C 179.019531 246.398438 179.023438 246.394531 179.027344 246.394531 C 179.320312 246.183594 179.640625 245.957031 179.898438 245.765625 C 179.898438 245.765625 179.902344 245.765625 179.902344 245.765625 L 180.191406 245.542969 C 180.394531 245.390625 180.613281 245.226562 180.808594 245.074219 L 180.855469 245.039062 C 180.863281 245.03125 180.871094 245.027344 180.882812 245.019531 L 180.988281 244.933594 C 181.238281 244.738281 181.289062 244.378906 181.101562 244.121094 C 181.027344 244.019531 180.921875 243.949219 180.808594 243.910156 C 181.664062 243.164062 182.523438 242.386719 183.367188 241.589844 C 183.351562 241.8125 183.457031 242.027344 183.65625 242.140625 C 183.746094 242.191406 183.847656 242.21875 183.949219 242.21875 C 184.097656 242.21875 184.246094 242.164062 184.359375 242.054688 L 184.429688 241.988281 C 184.4375 241.980469 184.445312 241.976562 184.453125 241.96875 C 184.558594 241.867188 184.679688 241.753906 184.800781 241.636719 C 184.972656 241.472656 185.144531 241.3125 185.285156 241.167969 C 185.5 240.960938 185.757812 240.699219 185.996094 240.457031 L 186.234375 240.214844 C 186.242188 240.207031 186.25 240.199219 186.257812 240.191406 L 186.332031 240.113281 C 186.523438 239.914062 186.550781 239.609375 186.398438 239.378906 C 186.277344 239.199219 186.074219 239.101562 185.871094 239.117188 C 186.707031 238.257812 187.511719 237.390625 188.289062 236.519531 C 188.324219 236.636719 188.394531 236.742188 188.496094 236.820312 C 188.605469 236.902344 188.730469 236.941406 188.855469 236.941406 C 189.03125 236.941406 189.207031 236.863281 189.324219 236.714844 L 189.398438 236.617188 C 189.410156 236.605469 189.417969 236.59375 189.429688 236.582031 L 190.070312 235.761719 C 190.3125 235.449219 190.601562 235.050781 190.859375 234.699219 L 191.160156 234.28125 C 191.167969 234.269531 191.175781 234.261719 191.183594 234.25 L 191.277344 234.117188 C 191.292969 234.09375 191.308594 234.070312 191.320312 234.042969 C 192.007812 232.695312 192.105469 232.503906 192.128906 231.832031 C 193.835938 229.554688 195.167969 227.453125 196.105469 225.554688 C 196.152344 225.507812 196.195312 225.453125 196.222656 225.390625 L 196.332031 225.136719 C 196.335938 225.132812 196.335938 225.128906 196.339844 225.121094 L 196.472656 224.808594 C 196.476562 224.804688 196.476562 224.800781 196.480469 224.792969 L 196.636719 224.417969 C 196.636719 224.414062 196.640625 224.410156 196.640625 224.410156 L 196.683594 224.304688 L 196.695312 224.273438 C 196.699219 224.265625 196.703125 224.257812 196.707031 224.25 L 196.796875 224.023438 C 196.800781 224.015625 196.804688 224.003906 196.808594 223.996094 C 196.855469 223.882812 196.902344 223.769531 196.953125 223.648438 C 197.984375 220.90625 198.273438 220.015625 198.886719 217.683594 C 199.007812 217.230469 199.140625 216.726562 199.285156 216.164062 C 199.285156 216.160156 199.289062 216.152344 199.289062 216.148438 C 199.289062 216.140625 199.292969 216.136719 199.292969 216.132812 C 199.691406 214.242188 199.910156 213.105469 200.085938 211.753906 C 200.292969 210.367188 200.417969 209.101562 200.503906 207.515625 C 200.503906 207.511719 200.503906 207.507812 200.503906 207.503906 L 200.5625 206.066406 L 200.5625 205.914062 L 200.574219 205.589844 C 200.574219 205.574219 200.574219 205.5625 200.574219 205.546875"/></g><path fill="#F5A03F" d="M 154.101562 189.640625 C 154.101562 192.652344 151.648438 195.097656 148.621094 195.097656 C 145.59375 195.097656 143.140625 192.652344 143.140625 189.640625 C 143.140625 186.625 145.59375 184.179688 148.621094 184.179688 C 151.648438 184.179688 154.101562 186.625 154.101562 189.640625"/><path fill="#F5A03F" d="M 180.792969 198.570312 C 180.792969 201.582031 178.335938 204.027344 175.308594 204.027344 C 172.28125 204.027344 169.828125 201.582031 169.828125 198.570312 C 169.828125 195.554688 172.28125 193.109375 175.308594 193.109375 C 178.335938 193.109375 180.792969 195.554688 180.792969 198.570312"/><path fill="#F5A03F" d="M 188.691406 223.019531 C 188.691406 226.035156 186.238281 228.476562 183.210938 228.476562 C 180.183594 228.476562 177.726562 226.035156 177.726562 223.019531 C 177.726562 220.003906 180.183594 217.558594 183.210938 217.558594 C 186.238281 217.558594 188.691406 220.003906 188.691406 223.019531"/><path fill="#F5A03F" d="M 164.265625 214.710938 C 164.265625 217.726562 161.8125 220.167969 158.785156 220.167969 C 155.757812 220.167969 153.304688 217.726562 153.304688 214.710938 C 153.304688 211.695312 155.757812 209.25 158.785156 209.25 C 161.8125 209.25 164.265625 211.695312 164.265625 214.710938"/><path fill="#F5A03F" d="M 174.304688 235.972656 C 174.304688 238.988281 171.847656 241.429688 168.820312 241.429688 C 165.792969 241.429688 163.339844 238.988281 163.339844 235.972656 C 163.339844 232.957031 165.792969 230.511719 168.820312 230.511719 C 171.847656 230.511719 174.304688 232.957031 174.304688 235.972656"/><path fill="#F5A03F" d="M 164.71875 173.847656 C 164.71875 175.757812 163.164062 177.304688 161.242188 177.304688 C 159.324219 177.304688 157.769531 175.757812 157.769531 173.847656 C 157.769531 171.9375 159.324219 170.386719 161.242188 170.386719 C 163.164062 170.386719 164.71875 171.9375 164.71875 173.847656"/><path fill="#F5A03F" d="M 188.964844 182.679688 C 188.964844 184.589844 187.410156 186.140625 185.488281 186.140625 C 183.570312 186.140625 182.015625 184.589844 182.015625 182.679688 C 182.015625 180.769531 183.570312 179.222656 185.488281 179.222656 C 187.410156 179.222656 188.964844 180.769531 188.964844 182.679688"/><path fill="#F5A03F" d="M 197.71875 209.46875 C 197.71875 211.378906 196.164062 212.929688 194.242188 212.929688 C 192.324219 212.929688 190.769531 211.378906 190.769531 209.46875 C 190.769531 207.558594 192.324219 206.011719 194.242188 206.011719 C 196.164062 206.011719 197.71875 207.558594 197.71875 209.46875"/><path fill="#F5A03F" d="M 136.871094 205.675781 C 136.871094 207.589844 135.316406 209.136719 133.398438 209.136719 C 131.480469 209.136719 129.925781 207.589844 129.925781 205.675781 C 129.925781 203.769531 131.480469 202.21875 133.398438 202.21875 C 135.316406 202.21875 136.871094 203.769531 136.871094 205.675781"/><path fill="#F5A03F" d="M 145.199219 231.617188 C 145.199219 233.527344 143.644531 235.074219 141.726562 235.074219 C 139.804688 235.074219 138.25 233.527344 138.25 231.617188 C 138.25 229.707031 139.804688 228.15625 141.726562 228.15625 C 143.644531 228.15625 145.199219 229.707031 145.199219 231.617188"/><path fill="#F5A03F" d="M 156.1875 249.199219 C 156.1875 251.109375 154.632812 252.65625 152.710938 252.65625 C 150.792969 252.65625 149.238281 251.109375 149.238281 249.199219 C 149.238281 247.289062 150.792969 245.738281 152.710938 245.738281 C 154.632812 245.738281 156.1875 247.289062 156.1875 249.199219"/><path fill="#F5A03F" d="M 168.578125 162.566406 C 168.578125 163.75 167.613281 164.710938 166.421875 164.710938 C 165.234375 164.710938 164.265625 163.75 164.265625 162.566406 C 164.265625 161.378906 165.234375 160.421875 166.421875 160.421875 C 167.613281 160.421875 168.578125 161.378906 168.578125 162.566406"/><path fill="#F5A03F" d="M 190.355469 172.132812 C 190.355469 173.320312 189.390625 174.277344 188.199219 174.277344 C 187.011719 174.277344 186.046875 173.320312 186.046875 172.132812 C 186.046875 170.949219 187.011719 169.988281 188.199219 169.988281 C 189.390625 169.988281 190.355469 170.949219 190.355469 172.132812"/><g clip-path="url(#b)"><path fill="#F5A03F" d="M 201.671875 198.570312 C 201.671875 199.753906 200.707031 200.714844 199.515625 200.714844 C 198.328125 200.714844 197.363281 199.753906 197.363281 198.570312 C 197.363281 197.382812 198.328125 196.421875 199.515625 196.421875 C 200.707031 196.421875 201.671875 197.382812 201.671875 198.570312"/></g><path fill="#F5A03F" d="M 120.511719 216.390625 C 120.511719 217.574219 119.550781 218.535156 118.359375 218.535156 C 117.167969 218.535156 116.203125 217.574219 116.203125 216.390625 C 116.203125 215.203125 117.167969 214.246094 118.359375 214.246094 C 119.550781 214.246094 120.511719 215.203125 120.511719 216.390625"/><path fill="#F5A03F" d="M 127.988281 240.628906 C 127.988281 241.8125 127.019531 242.773438 125.832031 242.773438 C 124.640625 242.773438 123.675781 241.8125 123.675781 240.628906 C 123.675781 239.441406 124.640625 238.480469 125.832031 238.480469 C 127.019531 238.480469 127.988281 239.441406 127.988281 240.628906"/><g clip-path="url(#c)"><path fill="#F5A03F" d="M 142.027344 254.484375 C 142.027344 255.667969 141.0625 256.632812 139.875 256.632812 C 138.683594 256.632812 137.71875 255.667969 137.71875 254.484375 C 137.71875 253.300781 138.683594 252.339844 139.875 252.339844 C 141.0625 252.339844 142.027344 253.300781 142.027344 254.484375"/></g><path fill="#F5A03F" d="M 108.863281 221.707031 C 108.863281 222.894531 107.894531 223.855469 106.707031 223.855469 C 105.515625 223.855469 104.550781 222.894531 104.550781 221.707031 C 104.550781 220.523438 105.515625 219.5625 106.707031 219.5625 C 107.894531 219.5625 108.863281 220.523438 108.863281 221.707031"/><path fill="#F5A03F" d="M 116.546875 242.773438 C 116.546875 243.960938 115.582031 244.917969 114.394531 244.917969 C 113.203125 244.917969 112.238281 243.960938 112.238281 242.773438 C 112.238281 241.589844 113.203125 240.628906 114.394531 240.628906 C 115.582031 240.628906 116.546875 241.589844 116.546875 242.773438"/><g clip-path="url(#d)"><path fill="#FAAF40" d="M 97.277344 139.890625 L 93.113281 135.726562 L 106.796875 122.046875 L 96.765625 112.019531 L 83.085938 125.699219 L 78.625 121.238281 L 66.335938 133.527344 L 70.792969 137.988281 L 57.113281 151.671875 L 67.140625 161.699219 L 80.824219 148.015625 L 84.988281 152.179688 L 90.3125 146.855469 L 99.058594 155.601562 L 100.699219 153.964844 L 91.949219 145.21875 Z M 96.765625 115.292969 L 103.519531 122.046875 L 91.476562 134.089844 L 84.722656 127.335938 Z M 67.140625 158.421875 L 60.390625 151.671875 L 72.433594 139.625 L 79.183594 146.378906 Z M 84.988281 148.90625 L 69.609375 133.527344 L 78.625 124.515625 L 94 139.890625 Z M 84.988281 148.90625"/></g><path fill="#FAAF40" d="M 110.746094 156.433594 L 108.429688 156.460938 C 108.449219 158.316406 107.746094 160.058594 106.445312 161.355469 C 105.148438 162.652344 103.417969 163.378906 101.558594 163.332031 L 101.53125 165.648438 C 101.566406 165.648438 101.601562 165.648438 101.636719 165.648438 C 104.085938 165.648438 106.367188 164.707031 108.085938 162.992188 C 109.828125 161.25 110.769531 158.921875 110.746094 156.433594 Z M 110.746094 156.433594"/><path fill="#FAAF40" d="M 115.335938 170.238281 C 118.96875 166.605469 120.9375 161.742188 120.878906 156.546875 L 118.5625 156.574219 C 118.613281 161.140625 116.886719 165.410156 113.699219 168.601562 C 110.507812 171.792969 106.242188 173.527344 101.667969 173.46875 L 101.644531 175.785156 C 101.71875 175.785156 101.792969 175.785156 101.867188 175.785156 C 106.976562 175.785156 111.753906 173.820312 115.335938 170.238281 Z M 115.335938 170.238281"/><g clip-path="url(#e)"><path fill="#FAAF40" d="M 128.199219 156.683594 C 128.28125 163.824219 125.578125 170.503906 120.585938 175.492188 C 115.597656 180.484375 108.949219 183.195312 101.777344 183.105469 L 101.753906 185.421875 C 101.863281 185.421875 101.976562 185.421875 102.089844 185.421875 C 109.730469 185.421875 116.871094 182.484375 122.226562 177.132812 C 127.660156 171.695312 130.605469 164.425781 130.515625 156.65625 Z M 128.199219 156.683594"/></g><g fill="#FAAF40"><g><g><path d="M 11.453125 -8.515625 L 14.59375 -29.359375 L 21.015625 -29.359375 L 21.015625 0 L 16.65625 0 L 16.65625 -21.0625 L 13.46875 0 L 9.109375 0 L 5.65625 -20.765625 L 5.65625 0 L 1.640625 0 L 1.640625 -29.359375 L 8.0625 -29.359375 Z M 11.453125 -8.515625" transform="translate(210.108 158.36)"/></g></g></g><g fill="#50BDD0"><g><g><path d="M 6.296875 -16.984375 L 12.625 -16.984375 L 12.625 -12.796875 L 6.296875 -12.796875 L 6.296875 -4.1875 L 14.265625 -4.1875 L 14.265625 0 L 1.671875 0 L 1.671875 -29.359375 L 14.265625 -29.359375 L 14.265625 -25.171875 L 6.296875 -25.171875 Z M 6.296875 -16.984375" transform="translate(232.796 158.36)"/></g></g></g><g fill="#50BDD0"><g><g><path d="M 1.09375 -22.3125 C 1.09375 -24.695312 1.65625 -26.523438 2.78125 -27.796875 C 3.914062 -29.066406 5.617188 -29.703125 7.890625 -29.703125 C 10.148438 -29.703125 11.847656 -29.066406 12.984375 -27.796875 C 14.117188 -26.523438 14.6875 -24.695312 14.6875 -22.3125 L 14.6875 -21.390625 L 10.328125 -21.390625 L 10.328125 -22.609375 C 10.328125 -23.671875 10.125 -24.414062 9.71875 -24.84375 C 9.3125 -25.28125 8.742188 -25.5 8.015625 -25.5 C 7.285156 -25.5 6.71875 -25.28125 6.3125 -24.84375 C 5.90625 -24.414062 5.703125 -23.671875 5.703125 -22.609375 C 5.703125 -21.609375 5.925781 -20.722656 6.375 -19.953125 C 6.820312 -19.179688 7.378906 -18.453125 8.046875 -17.765625 C 8.722656 -17.078125 9.445312 -16.390625 10.21875 -15.703125 C 10.988281 -15.023438 11.707031 -14.28125 12.375 -13.46875 C 13.050781 -12.65625 13.609375 -11.726562 14.046875 -10.6875 C 14.492188 -9.65625 14.71875 -8.441406 14.71875 -7.046875 C 14.71875 -4.671875 14.140625 -2.847656 12.984375 -1.578125 C 11.828125 -0.304688 10.113281 0.328125 7.84375 0.328125 C 5.582031 0.328125 3.867188 -0.304688 2.703125 -1.578125 C 1.546875 -2.847656 0.96875 -4.671875 0.96875 -7.046875 L 0.96875 -8.859375 L 5.328125 -8.859375 L 5.328125 -6.75 C 5.328125 -5.6875 5.539062 -4.945312 5.96875 -4.53125 C 6.40625 -4.113281 6.988281 -3.90625 7.71875 -3.90625 C 8.445312 -3.90625 9.023438 -4.113281 9.453125 -4.53125 C 9.890625 -4.945312 10.109375 -5.6875 10.109375 -6.75 C 10.109375 -7.757812 9.882812 -8.648438 9.4375 -9.421875 C 8.988281 -10.191406 8.425781 -10.914062 7.75 -11.59375 C 7.082031 -12.28125 6.363281 -12.96875 5.59375 -13.65625 C 4.832031 -14.34375 4.113281 -15.085938 3.4375 -15.890625 C 2.769531 -16.703125 2.210938 -17.625 1.765625 -18.65625 C 1.316406 -19.695312 1.09375 -20.914062 1.09375 -22.3125 Z M 1.09375 -22.3125" transform="translate(248.231 158.36)"/></g></g></g><g fill="#50BDD0"><g><g><path d="M 6.296875 0 L 1.671875 0 L 1.671875 -29.359375 L 6.296875 -29.359375 L 6.296875 -16.78125 L 11.53125 -16.78125 L 11.53125 -29.359375 L 16.234375 -29.359375 L 16.234375 0 L 11.53125 0 L 11.53125 -12.578125 L 6.296875 -12.578125 Z M 6.296875 0" transform="translate(263.918 158.36)"/></g></g></g><g fill="#FAAF40"><g><g><path d="M 1.671875 -29.359375 L 6.296875 -29.359375 L 6.296875 0 L 1.671875 0 Z M 1.671875 -29.359375" transform="translate(210.373 197.13)"/></g></g></g><g fill="#50BDD0"><g><g><path d="M 5.796875 -21.265625 L 5.796875 0 L 1.640625 0 L 1.640625 -29.359375 L 7.421875 -29.359375 L 12.171875 -11.78125 L 12.171875 -29.359375 L 16.28125 -29.359375 L 16.28125 0 L 11.53125 0 Z M 5.796875 -21.265625" transform="translate(218.331 197.13)"/></g></g></g><g fill="#FAAF40"><g><g><path d="M 1.09375 -22.3125 C 1.09375 -24.695312 1.65625 -26.523438 2.78125 -27.796875 C 3.914062 -29.066406 5.617188 -29.703125 7.890625 -29.703125 C 10.148438 -29.703125 11.847656 -29.066406 12.984375 -27.796875 C 14.117188 -26.523438 14.6875 -24.695312 14.6875 -22.3125 L 14.6875 -21.390625 L 10.328125 -21.390625 L 10.328125 -22.609375 C 10.328125 -23.671875 10.125 -24.414062 9.71875 -24.84375 C 9.3125 -25.28125 8.742188 -25.5 8.015625 -25.5 C 7.285156 -25.5 6.71875 -25.28125 6.3125 -24.84375 C 5.90625 -24.414062 5.703125 -23.671875 5.703125 -22.609375 C 5.703125 -21.609375 5.925781 -20.722656 6.375 -19.953125 C 6.820312 -19.179688 7.378906 -18.453125 8.046875 -17.765625 C 8.722656 -17.078125 9.445312 -16.390625 10.21875 -15.703125 C 10.988281 -15.023438 11.707031 -14.28125 12.375 -13.46875 C 13.050781 -12.65625 13.609375 -11.726562 14.046875 -10.6875 C 14.492188 -9.65625 14.71875 -8.441406 14.71875 -7.046875 C 14.71875 -4.671875 14.140625 -2.847656 12.984375 -1.578125 C 11.828125 -0.304688 10.113281 0.328125 7.84375 0.328125 C 5.582031 0.328125 3.867188 -0.304688 2.703125 -1.578125 C 1.546875 -2.847656 0.96875 -4.671875 0.96875 -7.046875 L 0.96875 -8.859375 L 5.328125 -8.859375 L 5.328125 -6.75 C 5.328125 -5.6875 5.539062 -4.945312 5.96875 -4.53125 C 6.40625 -4.113281 6.988281 -3.90625 7.71875 -3.90625 C 8.445312 -3.90625 9.023438 -4.113281 9.453125 -4.53125 C 9.890625 -4.945312 10.109375 -5.6875 10.109375 -6.75 C 10.109375 -7.757812 9.882812 -8.648438 9.4375 -9.421875 C 8.988281 -10.191406 8.425781 -10.914062 7.75 -11.59375 C 7.082031 -12.28125 6.363281 -12.96875 5.59375 -13.65625 C 4.832031 -14.34375 4.113281 -15.085938 3.4375 -15.890625 C 2.769531 -16.703125 2.210938 -17.625 1.765625 -18.65625 C 1.316406 -19.695312 1.09375 -20.914062 1.09375 -22.3125 Z M 1.09375 -22.3125" transform="translate(210.247 234.4)"/></g></g></g><g fill="#50BDD0"><g><g><path d="M 8.46875 -29.359375 C 10.789062 -29.359375 12.519531 -28.742188 13.65625 -27.515625 C 14.789062 -26.285156 15.359375 -24.484375 15.359375 -22.109375 L 15.359375 -18.296875 C 15.359375 -15.910156 14.789062 -14.101562 13.65625 -12.875 C 12.519531 -11.644531 10.789062 -11.03125 8.46875 -11.03125 L 6.296875 -11.03125 L 6.296875 0 L 1.671875 0 L 1.671875 -29.359375 Z M 6.296875 -25.171875 L 6.296875 -15.234375 L 8.46875 -15.234375 C 9.195312 -15.234375 9.753906 -15.425781 10.140625 -15.8125 C 10.535156 -16.207031 10.734375 -16.9375 10.734375 -18 L 10.734375 -22.40625 C 10.734375 -23.46875 10.535156 -24.191406 10.140625 -24.578125 C 9.753906 -24.972656 9.195312 -25.171875 8.46875 -25.171875 Z M 6.296875 -25.171875" transform="translate(225.927 234.4)"/></g></g></g><g fill="#50BDD0"><g><g><path d="M 16.609375 0 L 11.953125 0 L 11.15625 -5.328125 L 5.5 -5.328125 L 4.703125 0 L 0.46875 0 L 5.15625 -29.359375 L 11.921875 -29.359375 Z M 6.078125 -9.3125 L 10.53125 -9.3125 L 8.3125 -24.171875 Z M 6.078125 -9.3125" transform="translate(241.74 234.4)"/></g></g></g><g fill="#50BDD0"><g><g><path d="M 15.0625 -10.953125 L 15.0625 -7.046875 C 15.0625 -4.671875 14.476562 -2.847656 13.3125 -1.578125 C 12.15625 -0.304688 10.445312 0.328125 8.1875 0.328125 C 5.914062 0.328125 4.195312 -0.304688 3.03125 -1.578125 C 1.875 -2.847656 1.296875 -4.671875 1.296875 -7.046875 L 1.296875 -22.3125 C 1.296875 -24.695312 1.875 -26.523438 3.03125 -27.796875 C 4.195312 -29.066406 5.914062 -29.703125 8.1875 -29.703125 C 10.445312 -29.703125 12.15625 -29.066406 13.3125 -27.796875 C 14.476562 -26.523438 15.0625 -24.695312 15.0625 -22.3125 L 15.0625 -19.46875 L 10.703125 -19.46875 L 10.703125 -22.609375 C 10.703125 -23.671875 10.484375 -24.414062 10.046875 -24.84375 C 9.609375 -25.28125 9.03125 -25.5 8.3125 -25.5 C 7.582031 -25.5 7 -25.28125 6.5625 -24.84375 C 6.132812 -24.414062 5.921875 -23.671875 5.921875 -22.609375 L 5.921875 -6.75 C 5.921875 -5.6875 6.132812 -4.945312 6.5625 -4.53125 C 7 -4.113281 7.582031 -3.90625 8.3125 -3.90625 C 9.03125 -3.90625 9.609375 -4.113281 10.046875 -4.53125 C 10.484375 -4.945312 10.703125 -5.6875 10.703125 -6.75 L 10.703125 -10.953125 Z M 15.0625 -10.953125" transform="translate(258.81 234.4)"/></g></g></g><g fill="#50BDD0"><g><g><path d="M 6.296875 -16.984375 L 12.625 -16.984375 L 12.625 -12.796875 L 6.296875 -12.796875 L 6.296875 -4.1875 L 14.265625 -4.1875 L 14.265625 0 L 1.671875 0 L 1.671875 -29.359375 L 14.265625 -29.359375 L 14.265625 -25.171875 L 6.296875 -25.171875 Z M 6.296875 -16.984375" transform="translate(275 234.4)"/></g></g></g><g clip-path="url(#f)"><path fill="#FAAF40" d="M 290.339844 250.945312 L 290.339844 253.285156 C 285.757812 253.285156 283.4375 250.484375 281.386719 248.019531 C 279.425781 245.65625 277.734375 243.617188 274.289062 243.617188 C 270.84375 243.617188 269.152344 245.65625 267.191406 248.019531 C 265.140625 250.484375 262.820312 253.285156 258.242188 253.285156 C 253.660156 253.285156 251.339844 250.484375 249.289062 248.019531 C 247.328125 245.65625 245.636719 243.617188 242.191406 243.617188 C 238.75 243.617188 237.054688 245.65625 235.09375 248.019531 C 233.046875 250.484375 230.726562 253.285156 226.144531 253.285156 C 221.566406 253.285156 219.242188 250.484375 217.195312 248.019531 C 215.234375 245.65625 213.539062 243.617188 210.097656 243.617188 L 210.097656 241.277344 C 214.675781 241.277344 217 244.074219 219.046875 246.542969 C 221.007812 248.90625 222.703125 250.945312 226.144531 250.945312 C 229.589844 250.945312 231.28125 248.90625 233.242188 246.542969 C 235.289062 244.074219 237.613281 241.277344 242.191406 241.277344 C 246.773438 241.277344 249.09375 244.074219 251.144531 246.542969 C 253.101562 248.90625 254.796875 250.945312 258.242188 250.945312 C 261.683594 250.945312 263.378906 248.90625 265.339844 246.542969 C 267.386719 244.074219 269.710938 241.277344 274.289062 241.277344 C 278.871094 241.277344 281.191406 244.074219 283.238281 246.542969 C 285.199219 248.90625 286.894531 250.945312 290.339844 250.945312"/></g><path stroke-linecap="round" transform="matrix(1.4952 0 0 1.5 210.094 247.428)" fill="none" d="M 0.499118 -0.00124593 L 50.675425 -0.00124593" stroke="#50BDD0"/><path stroke-linecap="round" transform="matrix(1.4952 0 0 1.5 290.349 247.428)" fill="#50BDD0" stroke-linejoin="round" d="M -2.500903 -1.501246 L -0.499703 -0.00124593 L -2.500903 1.498754 Z M -2.500903 -1.501246" stroke="#50BDD0"/></svg>